<?xml version="1.0" encoding="utf-8"?>
<!-- Generator: Adobe Illustrator 25.0.0, SVG Export Plug-In . SVG Version: 6.00 Build 0)  -->
<svg version="1.1" id="katman_1" xmlns="http://www.w3.org/2000/svg" xmlns:xlink="http://www.w3.org/1999/xlink" x="0px" y="0px"
	 width="700px" height="700px" viewBox="0 0 700 700" style="enable-background:new 0 0 700 700;" xml:space="preserve">

<g id="y35vxC_1_">
	<g>
		<path d="M352,544.3c20.3-0.6,38.6,16.4,38.5,38.4c-0.1,21.9-17.4,38.4-39.4,38.4c-17.3,0-39.2-14.4-37.5-41.3
			C314.8,557.3,334.1,543.4,352,544.3z"/>
		<path d="M234.7,514c20.3,0,37.2,14.4,39.3,33.1c1.9,16.2-5.3,31.5-20.5,39.6c-13.7,7.4-31.5,5.2-43.3-5.2c-0.5-0.4-1-0.9-1.4-1.3
			c-5-4.4-5.3-5.4-2.6-11.3c5.4-11.6,5.2-23-0.7-34.2c-1.6-2.9-1.3-4.9,0.8-7.3C214.3,518.3,224.4,514.2,234.7,514z"/>
		<path d="M429.1,550.6c0-16.3,10.1-30.9,25.3-36.3c15.7-5.6,32.7-0.8,43.1,12c1.5,1.9,1.8,3.6,0.6,5.8c-6.9,12.3-6.8,24.8-0.1,37.2
			c1.2,2.2,1,4-0.6,6c-13.1,16.2-38.5,19.4-55.8,4C433.2,571.7,429.2,561.9,429.1,550.6z"/>
		<path d="M576.9,436.5c-8,7.9-12.6,17.2-12.5,28.5c0,11.3,4.5,20.7,12.4,28.2c-4.7,7.8-22.3,12.2-34.6,9
			c-16.4-4.2-28.1-18.7-29-35.5c-0.9-16.5,10.4-33.1,25.1-38.1C554.4,423.2,570.6,428.7,576.9,436.5z"/>
		<path d="M125.1,439.4c7.6-9.3,26.3-12.4,40-6.9c15.1,6.1,24.6,22.1,23.5,39.2c-1.1,16.5-13.3,30.1-30.7,34.3
			c-10.7,2.6-28.6-2.3-32.6-9C142,477.8,142.1,458.6,125.1,439.4z"/>
		<path d="M99.4,385.6c12.3-7.7,18.8-18.7,19-33.2c0.1-14.6-6.8-25.4-18.9-33.2c8.8-7,29.8-8.3,43.9,3.9c15.9,13.8,17.9,38,4.4,54
			C133.7,393.8,111.3,393.7,99.4,385.6z"/>
		<path d="M600.6,315.3c-12.2,8.1-19.1,19.1-18.9,33.5c0.1,14.3,6.6,25.4,18.8,33c-8.9,7-30,8.5-44.4-4.6
			c-15.4-13.9-17.2-37.8-3.6-53.7C565.7,308.3,586.1,306.5,600.6,315.3z"/>
		<path d="M136.4,200c11.1-5.1,30.4-2.4,42,11.9c11.7,14.5,11.2,35.2-1.2,50c-10.4,12.4-30.9,15.4-40.4,10.4
			c15.4-7.3,24.8-18.8,24.7-36.2C161.4,218.7,152.4,207.1,136.4,200z"/>
		<path d="M561.7,196.7c-16.1,7.3-25.1,19.2-25,36.5c0.1,17.1,9.2,28.8,24.6,35.8c-7.9,4.7-25.5,3.2-37-7.2
			c-14.6-13.2-17.4-35.5-6.1-51.2C528.9,195.9,547.5,190.9,561.7,196.7z"/>
		<path d="M467.9,186.7c-12.4,1.4-22.8-3-31.4-11.5c-11.6-11.4-14.1-29.2-6.9-43.6c7.4-14.9,22-23,39.1-21
			c-18.8,6.3-30.6,17.5-30.4,37.9C438.6,168.6,449.2,180.7,467.9,186.7z"/>
		<path d="M228.2,112.8c8.9-2.3,24.8,1.6,34.2,13.5c9.9,12.4,11.2,30.3,3.2,44c-7.5,12.7-23.5,20.7-37.7,18.1
			c19.1-5.9,30.6-17.5,30.5-37.8C258.3,130.4,247.3,118.5,228.2,112.8z"/>
		<path d="M348.4,78.9c21.8,0.1,39.5,18,39.3,39.9c-0.1,22-17.8,39.3-40.2,39.2c-21.9-0.1-39.2-17.8-39-40
			C308.7,96.2,326.5,78.8,348.4,78.9z M385.4,118.4c0-20.4-16.8-37.2-37.4-37.3c-20.4,0-37,16.7-37.1,37.3
			c-0.1,20.6,16.5,37.3,36.9,37.3C368.7,155.8,385.4,139.2,385.4,118.4z"/>
	</g>
</g>
</svg>
